<svg width="28" height="33" viewBox="0 0 28 33" fill="none" xmlns="http://www.w3.org/2000/svg">
<path d="M22.7063 17.6307C22.6694 13.6324 26.0641 11.6872 26.2193 11.5966C24.2967 8.86366 21.3169 8.49026 20.2697 8.46048C17.767 8.20369 15.3393 9.92062 14.0644 9.92062C12.764 9.92062 10.8008 8.48529 8.68482 8.52747C5.96196 8.56841 3.41468 10.1055 2.01762 12.4923C-0.865556 17.359 1.28474 24.5108 4.04705 28.4446C5.42884 30.3712 7.04347 32.5223 9.15687 32.4466C11.2245 32.3635 11.9968 31.1614 14.4919 31.1614C16.9641 31.1614 17.6893 32.4466 19.8447 32.3983C22.0637 32.3635 23.4608 30.463 24.7942 28.519C26.3911 26.3108 27.0323 24.1362 27.0578 24.0245C27.0056 24.0071 22.7483 22.4229 22.7063 17.6307Z" fill="#403F3D"/>
<path d="M18.6347 5.87268C19.7468 4.51675 20.5076 2.67205 20.2964 0.800049C18.6869 0.86952 16.674 1.88554 15.5149 3.21169C14.4893 4.38029 13.5732 6.29571 13.8099 8.097C15.6179 8.2285 17.4743 7.20752 18.6347 5.87268Z" fill="#403F3D"/>
</svg>
