<svg width="36" height="36" viewBox="0 0 36 36" fill="none" xmlns="http://www.w3.org/2000/svg">
<path d="M3.7558 3.20309C3.39335 3.57302 3.18359 4.14896 3.18359 4.89483V31.4995C3.18359 32.2454 3.39335 32.8213 3.7558 33.1913L3.84525 33.2725L19.1359 18.3701V18.0182L3.84525 3.11587L3.7558 3.20309Z" fill="#403F3D"/>
<path d="M26.0776 23.34L20.9863 18.3701V18.0182L26.0837 13.0482L26.1979 13.1129L32.2345 16.4618C33.9573 17.4122 33.9573 18.9761 32.2345 19.9325L26.1979 23.2754L26.0776 23.34Z" fill="#403F3D"/>
<path d="M25.2733 24.2008L20.0617 19.1196L4.68164 34.1167C5.25384 34.7031 6.18695 34.7738 7.24807 34.1873L25.2733 24.2008Z" fill="#403F3D"/>
<path d="M25.2733 12.1876L7.24807 2.20103C6.18695 1.62058 5.25384 1.69125 4.68164 2.27772L20.0617 17.2688L25.2733 12.1876Z" fill="#403F3D"/>
</svg>
