<svg width="60" height="60" viewBox="0 0 60 60" fill="none" xmlns="http://www.w3.org/2000/svg">
<rect x="0.5" y="0.5" width="59" height="59" rx="29.5" stroke="#C1B6AD"/>
<path d="M41 21.0101C41 21.0101 38.9821 22.2022 37.86 22.5401C37.2577 21.8476 36.4573 21.3567 35.567 21.134C34.6767 20.9112 33.7395 20.9673 32.8821 21.2945C32.0247 21.6218 31.2884 22.2045 30.773 22.9638C30.2575 23.7231 29.9877 24.6224 30 25.5401V26.5401C28.2426 26.5856 26.5013 26.1959 24.931 25.4055C23.3607 24.6151 22.0103 23.4487 21 22.0101C21 22.0101 17 31.0101 26 35.0101C23.9405 36.408 21.4872 37.109 19 37.0101C28 42.0101 39 37.0101 39 25.5101C38.9991 25.2315 38.9723 24.9537 38.92 24.6801C39.9406 23.6735 41 21.0101 41 21.0101Z" stroke="#E1D4C9" stroke-linecap="round" stroke-linejoin="round"/>
</svg>
